<svg xmlns="http://www.w3.org/2000/svg" xmlns:xlink="http://www.w3.org/1999/xlink" version="1.1" id="Layer_1" x="0px" y="0px" width="100px" height="100px" viewBox="0 0 100 100" enable-background="new 0 0 100 100" xml:space="preserve">
<circle cx="40.204" cy="43.474" r="5.476"/>
<path d="M66.502,53.686h-9.639c-1.702,0-3.084,1.24-3.084,2.942l-1.745,19.308c0,1.703,1.381,3.147,3.083,3.147h0.961l2.374,16.209  c0,1.037,0.843,1.753,1.882,1.753h2.7c1.038,0,1.879-0.716,1.879-1.753l2.375-16.209h0.962c1.704,0,3.085-1.444,3.085-3.147  l-1.749-19.308C69.586,54.926,68.205,53.686,66.502,53.686z"/>
<circle cx="61.684" cy="46.45" r="5.17"/>
<path d="M23.949,66.439h-6.803c-1.203,0-2.177,0.875-2.177,2.076l-1.232,8.381c0,1.201,0.974,2.222,2.177,2.222h0.679l1.675,16.69  c0,0.729,0.595,1.237,1.328,1.237h1.907c0.732,0,1.326-0.508,1.326-1.237l1.676-16.69h0.679c1.204,0,2.178-1.021,2.178-2.222  l-1.235-8.381C26.126,67.314,25.152,66.439,23.949,66.439z"/>
<circle cx="20.549" cy="61.331" r="3.651"/>
<path d="M83.328,73.271c0-1.002-0.813-1.731-1.814-1.731h-5.67c-1.003,0-1.814,0.729-1.814,1.731l-1.026,11.355  c0,1.002,0.813,1.854,1.813,1.854h0.565l1.396,9.535c0,0.607,0.494,1.03,1.104,1.03h1.591c0.608,0,1.105-0.423,1.105-1.03  l1.396-9.535h0.565c1.003,0,1.815-0.852,1.815-1.854L83.328,73.271z"/>
<circle cx="78.679" cy="67.283" r="3.042"/>
<path d="M46.322,51.298c-0.322-0.097-0.66-0.161-1.018-0.161H35.101c-1.805,0-3.266,1.313-3.266,3.115l-1.85,12.572  c0,1.801,1.462,3.332,3.266,3.332h1.019l2.512,25.033c0,1.098,0.892,1.854,1.991,1.854h2.86c1.1,0,1.991-0.758,1.991-1.854  l2.514-25.033h1.019c1.805,0,3.267-1.531,3.267-3.332l-0.205-1.391V36.037v-4.946c3.689,0.553,6.695,2.447,8.017,4.946h1.451  c1.578-2.989,5.576-5.113,10.26-5.113c4.679,0,8.676,2.125,10.259,5.113h0.303c0-17.077-13.157-31.071-29.89-32.415  c-0.041-1.429-1.202-2.576-2.641-2.576c-1.437,0-2.601,1.147-2.64,2.576c-16.73,1.344-29.89,15.338-29.89,32.415h0.306  c1.58-2.989,5.575-5.113,10.258-5.113c4.683,0,8.678,2.125,10.257,5.113h1.452c1.39-2.629,4.651-4.588,8.602-5.021v5.021v15.261"/>
</svg>